HIERARCHY
ROOT Hips
{
	OFFSET 0.000000 0.000000 0.000000 
	CHANNELS 6 Xposition Yposition Zposition Yrotation Zrotation Xrotation 
	JOINT Lumbar
	{
		OFFSET 0.000000 0.000000 0.000000 
		CHANNELS 3 Zrotation Xrotation Yrotation
		JOINT Neck
		{
			OFFSET 0.000000 0.445665 0.000000 
			CHANNELS 3 Zrotation Xrotation Yrotation
			End Site
			{
				OFFSET 0.000000 0.227535 0.000000 
			}
		}
		JOINT RightShoulder
		{
			OFFSET 0.019635 0.377685 0.194865 
			CHANNELS 3 Zrotation Xrotation Yrotation
			JOINT RightElbow
			{
				OFFSET 0.000000 -0.243375 0.000000 
				CHANNELS 2 Zrotation Yrotation
				JOINT RightWrist
				{
					OFFSET 0.000000 -0.264825 0.000000 
					CHANNELS 2 Zrotation Xrotation
					End Site
					{
						OFFSET 0.006600 -0.176220 0.000990 
					}
				}
			}
		}
		JOINT LeftShoulder
		{
			OFFSET 0.019635 0.377685 -0.194865 
			CHANNELS 3 Zrotation Xrotation Yrotation
			JOINT LeftElbow
			{
				OFFSET 0.000000 -0.243375 0.000000 
				CHANNELS 2 Zrotation Yrotation
				JOINT LeftWrist
				{
					OFFSET 0.000000 -0.264825 0.000000 
					CHANNELS 2 Zrotation Xrotation
					End Site
					{
						OFFSET 0.006600 -0.176220 -0.000990 
					}
				}
			}
		}
	}
	JOINT RightHip
	{
		OFFSET 0.052140 -0.069960 0.075570 
		CHANNELS 3 Zrotation Xrotation Yrotation
		JOINT RightKnee
		{
			OFFSET 0.000000 -0.402270 0.000000 
			CHANNELS 1 Zrotation
			JOINT RightAnkle
			{
				OFFSET 0.000000 -0.404085 0.000000 
				CHANNELS 3 Zrotation Xrotation Yrotation
				End Site
				{
					OFFSET 0.204105 -0.089430 0.008415 
				}
			}
		}
	}
	JOINT LeftHip
	{
		OFFSET 0.052140 -0.069960 -0.075570 
		CHANNELS 3 Zrotation Xrotation Yrotation
		JOINT LeftKnee
		{
			OFFSET 0.000000 -0.402270 0.000000 
			CHANNELS 1 Zrotation
			JOINT LeftAnkle
			{
				OFFSET 0.000000 -0.404085 0.000000 
				CHANNELS 3 Zrotation Xrotation Yrotation
				End Site
				{
					OFFSET 0.204105 -0.089430 -0.008415 
				}
			}
		}
	}
}
MOTION
Frames: 13
Frame Time: 0.02
-0.33681 -0.36244 0.27068 -10.11223 11.52858 -3.44577 22.09352 -6.03604 35.30071 -11.78988 25.50936 -0.83079 6.36829 11.40178 64.17114 57.20732 96.87381 18.29172 0.41866 -53.96996 4.18181 50.23405 79.82176 -45.81568 -29.90223 -1.6654 52.87288 10.7883 -21.96286 -15.73272 -20.82029 0.00202 -1.01493 72.71827 5.25475 14.42569 -44.22267 -17.28944 2.42254 2.34793
-0.33736 -0.36293 0.2699 -9.77398 11.82944 -3.32965 21.57153 -6.05818 35.2829 -12.00758 25.44336 -0.83079 7.30165 11.40198 64.17123 57.36614 96.73411 18.23447 0.31309 -55.60311 5.92905 47.52158 79.6591 -41.60945 -31.04573 -2.48985 52.98434 10.31452 -21.08989 -16.60714 -20.67556 -0.0638 -1.0502 73.01126 5.04633 14.67894 -43.87395 -17.40658 2.23473 2.23804
-0.338 -0.36355 0.26899 -9.426 12.17079 -3.18133 20.99298 -6.07472 35.24306 -12.23047 25.35855 -0.83079 8.42508 11.40159 64.17104 57.59484 96.58695 18.18392 0.16373 -57.66989 8.02628 44.25241 79.5019 -36.31243 -32.47841 -3.53585 53.1479 9.77386 -20.2465 -17.6655 -20.5459 -0.13076 -1.08649 73.3058 4.91282 15.04289 -43.24215 -17.7044 2.04282 2.13524
-0.3386 -0.36412 0.26814 -9.07745 12.49255 -3.04957 20.44302 -6.09235 35.19697 -12.46383 25.27831 -0.83079 9.47876 11.40193 64.17125 57.79367 96.37603 18.1225 0.02195 -59.48166 9.86021 41.35968 79.35723 -31.67431 -33.63339 -4.47033 53.28383 9.2622 -19.39657 -18.62944 -20.41337 -0.19519 -1.12098 73.60397 4.75003 15.3343 -42.74893 -17.90934 1.86111 2.0339
-0.33922 -0.36464 0.2673 -8.74881 12.82142 -2.90818 19.87702 -6.1173 35.22402 -12.64238 25.21871 -0.83079 10.47073 11.40242 64.17135 57.97747 96.44168 18.10534 -0.05884 -61.53945 12.13772 37.93945 79.15316 -26.28889 -35.4158 -5.46086 53.43404 8.75397 -18.51233 -19.63911 -20.27866 -0.261 -1.15641 73.88669 4.56192 15.71742 -42.21404 -18.15538 1.64291 1.91178
-0.33981 -0.3653 0.26641 -8.37546 13.14374 -2.78102 19.33371 -6.12429 35.08755 -12.93801 25.10588 -0.83079 11.62845 11.39984 64.17029 58.21743 95.9359 17.98242 -0.28862 -63.1877 13.57296 35.48863 79.06787 -22.27179 -35.94565 -6.37519 53.56927 8.22383 -17.70668 -20.59909 -20.14584 -0.32673 -1.19175 74.20089 4.44735 15.9359 -41.70264 -18.36079 1.50017 1.83497
-0.34028 -0.36631 0.26544 -7.89761 13.44466 -2.68582 18.85234 -6.09449 34.55692 -13.53785 24.90348 -0.83079 13.24912 11.40511 64.17283 58.53354 93.82328 17.69769 -0.81147 -63.59373 12.5988 35.84524 79.36688 -21.67597 -33.08122 -7.12739 53.63292 7.64713 -17.13508 -21.35445 -20.02192 -0.39396 -1.22851 74.60117 4.50492 15.68093 -41.27613 -18.40489 1.56764 1.88206
-0.34071 -0.36746 0.26443 -7.37222 13.73591 -2.60908 18.39921 -6.04457 33.85278 -14.25839 24.63836 -0.83079 15.0159 11.40009 64.16969 58.91979 91.15308 17.28065 -1.49746 -63.57365 10.76484 37.19799 79.77435 -22.5922 -28.92548 -7.77763 53.68339 7.05135 -16.63862 -22.05798 -19.8959 -0.46147 -1.26533 75.03267 4.6367 15.25485 -40.89191 -18.40331 1.71107 1.97446
-0.34117 -0.36855 0.26342 -6.85835 14.02735 -2.53366 17.94255 -5.99651 33.19416 -14.93538 24.36755 -0.83079 16.68645 11.39449 64.16886 59.30903 88.7446 16.83935 -2.18602 -63.75148 9.32176 38.09986 80.09498 -23.25061 -25.26729 -8.40515 53.75107 6.46634 -16.09217 -22.79875 -19.76418 -0.52886 -1.30174 75.44989 4.74349 14.90275 -40.51941 -18.42645 1.81956 2.04602
-0.34162 -0.36963 0.26248 -6.38743 14.33899 -2.4154 17.443 -5.97944 32.6758 -15.56538 24.24077 -0.83079 18.50608 11.42825 64.18253 59.53552 86.25504 16.75936 -2.57408 -63.9253 7.88724 38.97669 80.57563 -22.13858 -21.97907 -9.32529 53.77187 5.87052 -15.61119 -23.48546 -19.66184 -0.59715 -1.3403 75.86799 4.81648 14.57242 -40.00488 -18.43922 1.93031 2.11923
-0.34206 -0.37076 0.26139 -5.81496 14.60448 -2.39207 17.04222 -5.89259 31.82397 -16.32116 23.79894 -0.83079 20.0268 11.35601 64.14792 60.13929 83.85925 15.88926 -3.59883 -64.00207 6.23004 40.14677 80.74702 -24.98672 -17.63123 -9.61721 53.88815 5.29304 -15.01423 -24.27351 -19.49692 -0.66237 -1.37367 76.29118 4.97585 14.15217 -39.8019 -18.46028 2.05365 2.1992
-0.34252 -0.37202 0.25994 -4.9815 14.75497 -2.61893 16.89144 -5.62263 30.09751 -17.40081 22.50641 -0.83079 20.85733 11.18187 64.12089 61.56765 81.35046 12.92665 -6.57979 -63.89986 4.13419 41.91082 80.05003 -39.27868 -10.48174 -8.12566 54.25685 4.77618 -14.05273 -25.32335 -19.16479 -0.73034 -1.39917 76.72437 5.36138 13.54692 -40.43328 -18.51577 2.20008 2.29089
-0.34296 -0.37331 0.25833 -4.04606 14.85712 -2.94216 16.84263 -5.28244 28.04113 -18.60173 20.89879 -0.83079 21.34642 10.86887 64.01704 63.40513 79.03696 9.16693 -10.1535 -63.71499 1.84954 43.93373 79.03465 -57.34992 -2.34088 -6.01795 54.72435 4.27816 -12.97586 -26.48147 -18.76887 -0.79317 -1.41828 77.16084 5.82992 12.85299 -41.38106 -18.58021 2.35532 2.387
